<svg width="293" height="49" viewBox="0 0 293 49" fill="none" xmlns="http://www.w3.org/2000/svg">
<path d="M111.407 18.35C112.382 20.1539 113.234 21.7445 113.967 23.1078C114.7 24.4758 115.343 25.6908 115.895 26.7527C116.447 27.8192 116.937 28.7931 117.356 29.6695C117.775 30.5506 118.189 31.4038 118.584 32.2385C118.936 31.4038 119.326 30.5598 119.745 29.7019C120.164 28.8441 120.654 27.8749 121.206 26.7851C121.759 25.6954 122.401 24.4804 123.134 23.1403C123.867 21.7955 124.719 20.2235 125.695 18.415L132.806 5.21744C133.605 3.73817 134.609 2.54177 135.833 1.64215C137.051 0.737895 138.569 0.288086 140.388 0.288086C142.115 0.288086 143.676 0.807452 145.076 1.85083C146.47 2.8942 147.479 4.50331 148.103 6.67817L159.335 47.5228H145.642L141.454 31.3389C140.744 28.7003 140.145 26.3863 139.659 24.3923C139.169 22.403 138.75 20.4553 138.398 18.5587C137.646 20.1817 136.804 21.9763 135.871 23.9425C134.938 25.9133 133.719 28.3989 132.215 31.4084L126.233 43.0757C125.657 44.235 125.071 45.1485 124.472 45.8209C123.872 46.4933 123.263 47.0127 122.644 47.3837C122.02 47.7546 121.359 47.9958 120.65 48.1117C119.94 48.2276 119.165 48.2833 118.322 48.2833C117.48 48.2833 116.704 48.223 115.995 48.1117C115.286 47.9958 114.619 47.7546 114 47.3837C113.377 47.0127 112.773 46.4933 112.173 45.8209C111.573 45.1485 110.988 44.235 110.412 43.0757L104.429 31.3389C103.629 29.7669 102.92 28.3525 102.301 27.1005C101.678 25.8484 101.116 24.7262 100.607 23.7338C100.098 22.7368 99.6552 21.8233 99.2792 20.9886C98.9032 20.1539 98.5367 19.347 98.1845 18.5587C97.8275 20.4136 97.4087 22.3427 96.9232 24.3599C96.4329 26.3724 95.8618 28.7003 95.1955 31.3389L91.007 47.5228H77.5137L89.0128 6.67817C89.6315 4.50331 90.6501 2.8942 92.0684 1.85083C93.4868 0.807452 95.0622 0.288086 96.7899 0.288086C98.5605 0.288086 100.06 0.728617 101.278 1.60969C102.497 2.49076 103.506 3.6918 104.305 5.22208L111.407 18.35Z" fill="#1C2D54"/>
<path d="M183.204 47.522L191.515 35.5766H202.68C204.008 35.5766 205.393 35.5766 206.836 35.5766C208.273 35.5766 209.529 35.6229 210.591 35.7157C209.967 34.881 209.249 33.8283 208.43 32.5531C207.611 31.2779 206.821 30.0861 206.069 28.9778L198.092 16.6846L177.217 47.5267H160.93L189.449 5.50422C190.382 4.15943 191.553 2.95839 192.971 1.89183C194.389 0.825271 196.184 0.291992 198.354 0.291992C200.439 0.291992 202.176 0.788175 203.571 1.78518C204.965 2.78218 206.15 4.02031 207.126 5.49958L234.912 47.522H183.204V47.522Z" fill="#1C2D54"/>
<path d="M22.7701 47.522L31.0803 35.5766H42.2463C43.5742 35.5766 44.9592 35.5766 46.4014 35.5766C47.8388 35.5766 49.0953 35.6229 50.1567 35.7157C49.5332 34.881 48.8145 33.8283 47.9958 32.5531C47.1772 31.2779 46.3871 30.0861 45.6351 28.9778L37.658 16.6846L16.7826 47.5267H0.500122L29.0194 5.50422C29.9523 4.15943 31.1232 2.95839 32.5415 1.89183C33.9599 0.825271 35.7542 0.291992 37.9246 0.291992C40.0093 0.291992 41.7465 0.788175 43.1411 1.78518C44.5356 2.78218 45.7207 4.02031 46.6965 5.49958L74.4828 47.522H22.7701V47.522Z" fill="#EE2333"/>
<path d="M284.918 48.2872C284.033 48.2872 283.157 48.1341 282.291 47.8374C281.425 47.5359 280.463 46.8543 279.397 45.7877L252.139 20.2274V47.5267H239.641V8.9775C239.641 7.44721 239.85 6.13025 240.274 5.01732C240.692 3.90438 241.249 3.00477 241.935 2.30918C242.62 1.6136 243.42 1.10351 244.329 0.778901C245.238 0.454296 246.18 0.291992 247.156 0.291992C247.998 0.291992 248.85 0.445021 249.716 0.741803C250.583 1.04322 251.568 1.72489 252.677 2.79145L279.935 28.3518V1.0525H292.5V39.5321C292.5 41.0624 292.291 42.3794 291.867 43.4923C291.444 44.6052 290.891 45.5188 290.206 46.2375C289.521 46.9563 288.712 47.4757 287.779 47.8003C286.846 48.1249 285.889 48.2872 284.918 48.2872Z" fill="#1C2D54"/>
</svg>
